<svg width="200" height="40" viewBox="0 0 217 46" fill="none" xmlns="http://www.w3.org/2000/svg">
<path d="M22.9997 0C35.7026 0 45.9997 10.2971 45.9997 23V39.1C45.9997 40.93 45.2728 42.685 43.9788 43.979C42.6848 45.273 40.9297 46 39.0997 46H24.1497V35.9099C24.1497 33.6076 24.29 31.2225 25.4975 29.2629C26.362 27.8586 27.5185 26.6566 28.8884 25.7385C30.2583 24.8204 31.8096 23.9552 33.4288 23.2954C36.2372 22.1768 38.5603 20.3589 39.3628 17.9406C39.5088 17.4473 39.5845 16.9274 39.5845 16.3911C39.5845 7.30593 31.6991 0 22.9997 0Z" fill="#000B6D"/>
<text x="60" y="40" font-size="50" font-weight="bold"  fill="#000B6D">Trenito</text>
</svg>
